<svg width="418" height="420" viewBox="0 0 418 420" fill="none" xmlns="http://www.w3.org/2000/svg">
<g id="image2vector 1">
<g id="lines">
<path id="Vector" d="M86.7423 153.739C90.5524 157.41 91.1169 156.718 57.6018 189.548C24.1573 222.448 24.8628 221.894 21.1233 218.154C17.3131 214.483 16.7487 215.175 50.2638 182.345C83.7083 149.445 83.0027 149.999 86.7423 153.739Z" fill="black"/>
<path id="Vector_2" d="M80.6743 232.075C83.7789 235.954 83.92 235.746 57.884 261.374C34.6704 284.161 33.4709 285.269 30.9308 285.269C29.0963 285.269 27.9674 284.784 27.0502 283.676C24.0867 280.074 24.0867 280.074 50.1932 254.378C72.2073 232.768 74.9591 230.275 77.0053 230.275C78.5576 230.275 79.6865 230.829 80.6743 232.075Z" fill="black"/>
<path id="Vector_3" d="M122.868 294.135C124.703 294.966 126.184 298.221 125.62 300.022C125.408 300.715 100.007 325.996 69.2439 356.125C8.63449 415.621 11.5274 413.128 7.71724 409.319C3.83654 405.578 1.22589 408.418 62.2587 348.575C100.431 311.035 118.987 293.304 119.905 293.373C120.681 293.373 122.021 293.719 122.868 294.135Z" fill="black"/>
<path id="Vector_4" d="M59.8597 306.533C61.2003 307.572 61.6942 308.541 61.6942 310.481C61.6942 312.766 60.7064 313.944 47.3709 327.104C33.6826 340.61 30.6486 343.173 28.1791 343.173C26.2035 343.173 23.5928 339.987 23.5928 337.562C23.5928 335.623 25.2862 333.684 37.8455 321.216C54.9206 304.316 56.0495 303.554 59.8597 306.533Z" fill="black"/>
<path id="Vector_5" d="M272.592 325.58C275.697 329.459 275.838 329.251 249.52 355.155C236.043 368.454 224.26 379.605 223.343 379.951C219.815 381.336 215.37 377.388 216.499 373.856C216.71 373.163 228.141 361.597 241.829 348.16C263.984 326.48 266.948 323.779 268.923 323.779C270.476 323.779 271.605 324.333 272.592 325.58Z" fill="black"/>
<path id="Vector_6" d="M199.635 326.203C203.375 329.805 203.516 329.666 176.845 355.848C150.245 381.96 150.386 381.821 146.717 378.15C142.977 374.549 142.907 374.687 169.507 348.575C196.107 322.463 195.966 322.532 199.635 326.203Z" fill="black"/>
<path id="Vector_7" d="M129.359 344.281C132.393 348.021 131.97 348.575 115.459 364.783C101.207 378.843 99.9367 379.882 97.6082 379.882C93.1631 379.882 90.9758 375.795 93.3748 372.055C94.1509 370.878 101.066 363.674 108.827 356.125C121.81 343.519 123.08 342.48 125.408 342.48C127.313 342.48 128.301 342.965 129.359 344.281Z" fill="black"/>
</g>
<g id="ball">
<path id="path0" fill-rule="evenodd" clip-rule="evenodd" d="M270.656 0.40981C271.116 0.61351 272.699 0.79306 274.174 0.80986C275.65 0.82561 278.001 1.01251 279.399 1.22566C280.798 1.43776 283.541 1.82521 285.495 2.08771C287.449 2.34916 289.8 2.72716 290.72 2.92771C291.639 3.12721 293.52 3.50941 294.9 3.77611C298.996 4.56886 305.326 6.21316 307.858 7.14241C308.318 7.31146 310.01 7.86166 311.62 8.36566C313.229 8.86966 314.922 9.43666 315.382 9.62461C315.842 9.81256 316.688 10.1633 317.263 10.4027C317.838 10.6431 319.896 11.46 321.839 12.2202C327.256 14.3381 340.062 20.8691 343.2 23.114C343.834 23.5676 344.474 23.9393 344.621 23.9393C345.955 23.9393 361.339 35.7371 367.595 41.5583C376.631 49.9667 391.677 67.9563 393.255 72.2393C393.383 72.5858 393.604 72.9638 393.748 73.0793C394.25 73.4825 395.429 76.3626 395.429 77.1848C395.429 84.6965 387.588 85.9554 383.733 79.0643C382.405 76.6892 381.548 76.7511 380.837 79.2743C379.882 82.67 376.131 94.2494 375.738 95.019C375.533 95.4201 375.365 96.1173 375.365 96.5688C375.365 97.0203 375.177 97.5065 374.947 97.6493C374.717 97.7921 374.529 98.3591 374.529 98.9093C374.529 99.4595 374.341 100.026 374.111 100.169C373.881 100.312 373.693 100.798 373.693 101.25C373.693 101.701 373.522 102.398 373.314 102.8C372.511 104.347 367.115 121.599 367.29 122.058C367.391 122.324 369.015 123.646 370.897 124.995C372.779 126.345 374.414 127.557 374.529 127.691C374.644 127.824 375.96 128.774 377.455 129.801C378.949 130.828 380.385 131.858 380.644 132.089C380.904 132.32 382.306 133.36 383.758 134.399C385.211 135.439 388.384 137.752 390.81 139.54C393.235 141.328 395.681 143.124 396.244 143.53C396.806 143.936 398.035 144.85 398.972 145.561C402.452 148.195 405.195 149.894 405.583 149.653C406.431 149.128 404.46 133.119 402.517 124.739C401.01 118.239 399.919 114.439 397.524 107.346C395.359 100.933 395.262 99.8763 396.634 97.6493C396.776 97.4183 396.892 96.8513 396.892 96.3893C396.892 95.6343 397.207 95.5377 400.027 95.4369C404.58 95.2731 405.805 96.1793 407.553 101.009C407.72 101.471 408.061 102.322 408.309 102.899C408.558 103.477 409.173 105.272 409.674 106.889C410.176 108.506 410.723 110.207 410.892 110.669C411.694 112.876 412.149 114.589 412.149 115.4C412.149 115.889 412.316 116.394 412.521 116.521C412.725 116.648 412.997 117.367 413.125 118.12C413.353 119.465 413.66 120.977 414.639 125.579C419.195 146.982 418.601 171.702 412.982 194.459C412.726 195.499 412.411 196.871 412.284 197.51C412.156 198.148 411.886 198.773 411.683 198.9C411.479 199.026 411.313 199.52 411.313 199.999C411.313 200.478 410.738 202.593 410.037 204.7C408.81 208.377 408.616 208.911 407.648 211.259C407.41 211.837 406.792 213.443 406.277 214.829C404.885 218.568 398.726 231.113 396.295 235.158C395.129 237.1 394.175 238.848 394.175 239.043C394.175 239.24 394.016 239.399 393.823 239.399C393.628 239.399 393.039 240.241 392.512 241.27C391.986 242.3 391.243 243.482 390.862 243.895C390.481 244.31 389.532 245.594 388.753 246.749C383.803 254.089 373.218 265.963 365.542 272.789C359.705 277.978 345.645 288.539 344.572 288.539C344.452 288.539 343.854 288.895 343.244 289.33C336.351 294.243 317.051 302.896 306.499 305.804C305.752 306.011 304.435 306.381 303.573 306.628C297.876 308.255 288.628 310.163 283.196 310.832C263.727 313.227 246.431 312.443 227.811 308.321C223.76 307.425 220.561 306.573 217.57 305.595C216.42 305.221 214.821 304.705 214.017 304.452C206.407 302.058 193.618 296.429 187.469 292.767C186.086 291.942 184.393 290.986 183.707 290.639C183.02 290.293 182.27 289.875 182.04 289.711C181.81 289.546 179.229 287.805 176.303 285.841C159.082 274.28 145.026 260.157 133.52 242.854C131.565 239.914 129.833 237.32 129.669 237.089C129.506 236.858 129.09 236.104 128.745 235.415C128.4 234.725 127.448 233.024 126.628 231.635C124.345 227.764 120.669 219.988 118.287 213.989C116.509 209.51 112.861 198.341 112.861 197.377C112.861 196.954 112.693 196.505 112.487 196.377C112.281 196.25 112.014 195.435 111.894 194.567C111.774 193.699 111.459 192.139 111.197 191.099C109.708 185.217 108.653 178.175 107.796 168.419C106.309 151.494 108.192 131.565 112.857 114.869C113.115 113.945 113.485 112.622 113.678 111.929C116.712 101.072 125.201 81.9801 130.048 75.1142C130.481 74.501 130.835 73.8668 130.835 73.704C130.835 73.304 136.753 64.715 139.367 61.3193C146.953 51.4692 158.195 39.9329 161.047 39.074C164.609 38.0019 168.037 40.7561 168.037 44.6904V47.2167L161.656 53.7425C155.89 59.6414 153.981 61.7046 152.195 63.9653C151.533 64.8042 151.411 64.2939 154.674 74.3393C155.763 77.6888 158.29 85.5323 160.291 91.7693C162.292 98.0063 164.101 103.438 164.311 103.839C164.521 104.24 164.693 104.856 164.693 105.209C164.693 105.562 164.861 106.178 165.067 106.58C165.273 106.981 166.354 110.141 167.47 113.602L169.5 119.896L176.188 122.351C179.866 123.701 183.863 125.17 185.07 125.613C186.277 126.056 188.346 126.816 189.668 127.3C190.99 127.784 192.448 128.332 192.908 128.518C193.368 128.703 194.402 129.082 195.207 129.359C196.011 129.636 197.046 130.014 197.506 130.199C197.966 130.384 199 130.762 199.805 131.039C201.33 131.565 202.152 131.876 204.111 132.668C205.173 133.097 209.26 131.053 210.673 129.386C210.788 129.25 212.575 127.925 214.644 126.44C216.713 124.957 219.817 122.705 221.541 121.437C226.144 118.053 228.532 116.301 231.573 114.079C233.067 112.987 234.572 111.864 234.917 111.585C235.262 111.306 236.202 110.623 237.007 110.068C239.237 108.529 247.582 102.452 253.413 98.1197L256.653 95.712V75.8345V55.9559L255.503 55.2104C254.871 54.7998 252.943 53.4222 251.219 52.1486C248.165 49.8932 246.114 48.3864 241.396 44.9393C238.478 42.8078 235.852 40.8779 230.195 36.7125C225.318 33.1215 221.907 30.6698 217.724 27.7508C216.26 26.7291 214.968 25.7778 214.853 25.6382C214.738 25.4985 213.614 24.6522 212.357 23.7566L210.071 22.128L207.968 22.862C205.271 23.8028 194.542 29.0769 191.088 31.1591C189.629 32.039 188.34 32.7593 188.227 32.7593C188.113 32.7593 187.458 33.1625 186.771 33.6539C181.416 37.4853 174.666 30.1154 179.009 25.1804C180.702 23.2578 194.947 15.4437 201.477 12.8555C202.511 12.446 204.016 11.8233 204.821 11.4716C205.625 11.1209 206.66 10.6715 207.12 10.473C208.282 9.97111 216.834 7.12246 218.615 6.64471C219.419 6.42841 220.736 6.06091 221.541 5.82781C225.464 4.68961 232.271 3.18496 236.38 2.54551C247.233 0.85816 252.677 0.36256 262.296 0.18091C266.434 0.10321 270.196 0.20716 270.656 0.40981ZM246.203 12.9888C242.304 13.4739 238.327 14.0745 236.38 14.4714C235.69 14.6121 234.091 14.9387 232.827 15.1959C230.644 15.6411 227.461 16.4318 225.407 17.0387C223.826 17.507 224.476 18.3596 228.438 21.014C229.587 21.7836 230.622 22.5312 230.737 22.674C230.852 22.8168 232.168 23.7744 233.663 24.8013C235.157 25.8282 236.474 26.7732 236.589 26.8992C236.704 27.0263 237.456 27.5901 238.261 28.154C239.065 28.7168 240.006 29.4056 240.351 29.6849C240.696 29.9642 243.329 31.892 246.203 33.9699C249.077 36.0479 251.616 37.9032 251.846 38.0933C252.076 38.2833 254.239 39.852 256.653 41.5793C259.067 43.3065 261.104 44.8637 261.181 45.039C261.564 45.9189 265.861 44.0142 267.103 42.4151C267.218 42.267 268.44 41.3609 269.82 40.4022C271.199 39.4425 273.739 37.6092 275.463 36.3272C277.187 35.0451 279.068 33.6728 279.643 33.279C280.218 32.8842 282.876 30.9522 285.55 28.9856C288.224 27.0189 292.692 23.7408 295.478 21.7017C300.524 18.0068 301.272 17.2193 299.732 17.2193C299.286 17.2193 298.816 17.0513 298.69 16.8455C298.564 16.6407 297.848 16.3709 297.098 16.2459C296.349 16.122 294.889 15.8144 293.855 15.5624C289.428 14.4861 283.85 13.5873 278.238 13.0455C275.972 12.8261 274 12.53 273.857 12.3851C273.455 11.9819 250.217 12.489 246.203 12.9888ZM311.61 24.3771C310.006 25.5416 308.412 26.726 308.067 27.0084C307.722 27.2909 306.781 27.9849 305.977 28.5519C305.172 29.1179 304.288 29.7773 304.012 30.0156C303.737 30.254 302.233 31.3565 300.668 32.4653C299.105 33.5751 295.38 36.2768 292.392 38.4713C289.403 40.6647 286.111 43.0545 285.077 43.7801C284.042 44.5067 283.133 45.2532 283.057 45.4401C282.979 45.627 282.746 45.7793 282.538 45.7793C282.331 45.7793 281.829 46.0554 281.425 46.3935C280.748 46.9563 277.454 49.3734 270.89 54.1226L268.357 55.9548V75.9762V95.9987L269.506 96.6927C270.139 97.0749 271.126 97.7627 271.701 98.2215C273.289 99.491 276.04 101.525 281.106 105.179C283.635 107.002 286.691 109.22 287.898 110.106C289.971 111.63 291.675 112.875 296.572 116.448C297.721 117.287 300.731 119.495 303.26 121.353C305.789 123.21 308.319 125.064 308.882 125.47C309.444 125.876 310.667 126.784 311.599 127.486C312.53 128.189 314.232 129.404 315.382 130.189C316.531 130.972 317.566 131.74 317.681 131.894C318.476 132.959 319.761 133.098 321.717 132.332C322.831 131.896 324.87 131.124 326.25 130.618C327.629 130.112 329.134 129.546 329.594 129.36C330.054 129.176 331.088 128.796 331.893 128.519C332.697 128.242 333.732 127.864 334.192 127.679C334.652 127.494 335.686 127.116 336.491 126.839C337.295 126.562 338.33 126.178 338.79 125.986C339.25 125.793 343.103 124.372 347.35 122.825C355.111 120.002 356.099 119.427 356.123 117.729C356.131 117.223 356.325 116.692 356.555 116.549C356.785 116.406 356.973 115.839 356.973 115.289C356.973 114.739 357.161 114.172 357.391 114.029C357.621 113.886 357.809 113.4 357.809 112.949C357.809 112.497 357.98 111.8 358.19 111.399C358.4 110.998 359.648 107.267 360.963 103.109C362.278 98.9513 364.243 92.8088 365.329 89.4593C366.414 86.1098 368.479 79.6838 369.916 75.1793C371.353 70.6748 372.719 66.5829 372.951 66.0852C373.626 64.6373 371.877 62.3913 363.675 54.1793C356.078 46.571 339.867 33.5993 337.957 33.5993C337.796 33.5993 337.166 33.2433 336.556 32.8086C332.63 30.0125 317.06 22.3506 315.163 22.2824C314.814 22.2698 313.216 23.2127 311.61 24.3771ZM139.331 82.2143C136.439 87.1062 130.417 99.0332 130.417 99.8669C130.417 100.105 130.056 101.026 129.616 101.914C126.199 108.807 121.726 125.409 120.407 136.092C120.136 138.28 119.739 141.335 119.523 142.88C119.033 146.398 119.016 149.939 119.491 149.939C119.69 149.939 121.148 148.982 122.731 147.812C124.314 146.641 125.986 145.415 126.446 145.086C126.906 144.756 128.64 143.493 130.302 142.278C131.962 141.064 135.139 138.746 137.36 137.129C144.097 132.224 146.871 130.19 148.109 129.246C148.758 128.75 150.103 127.771 151.097 127.067C158.218 122.033 157.944 122.355 157.178 119.939C156.954 119.23 156.406 117.515 155.962 116.129C155.519 114.743 153.523 108.506 151.528 102.269C149.533 96.0323 147.728 90.6006 147.518 90.1995C147.308 89.7984 147.137 89.1821 147.137 88.8293C147.137 88.4765 146.97 87.8601 146.766 87.459C146.561 87.0579 145.799 84.8393 145.072 82.5293C144.345 80.2193 143.671 78.093 143.575 77.8043C143.14 76.4897 142.035 77.6373 139.331 82.2143ZM259.149 108.467C255.373 111.137 252.486 113.243 251.627 113.958C251.277 114.249 250.055 115.129 248.91 115.913C247.766 116.696 246.171 117.84 245.367 118.453C243.653 119.76 240.334 122.191 233.872 126.874C230.791 129.106 230.016 129.677 226.975 131.955C225.94 132.729 222.507 135.222 219.346 137.496C215.332 140.382 213.599 141.876 213.599 142.449C213.599 143.28 217.558 155.841 218.242 157.179C218.447 157.58 218.615 158.277 218.615 158.729C218.615 159.18 218.803 159.666 219.033 159.809C219.263 159.952 219.451 160.519 219.451 161.069C219.451 161.619 219.639 162.186 219.869 162.329C220.099 162.472 220.287 163.039 220.287 163.589C220.287 164.139 220.475 164.706 220.705 164.849C220.935 164.992 221.123 165.478 221.123 165.93C221.123 166.381 221.289 167.078 221.493 167.48C221.696 167.881 222.244 169.438 222.709 170.939C228.867 190.783 231.838 199.56 232.551 200.017C232.817 200.187 246.208 200.33 262.307 200.333C294.28 200.34 293.023 200.436 293.619 197.934C294.081 195.993 298.918 180.862 299.325 180.08C299.535 179.678 299.707 178.981 299.707 178.53C299.707 178.078 299.895 177.592 300.125 177.449C300.355 177.306 300.543 176.739 300.543 176.189C300.543 175.639 300.731 175.072 300.961 174.929C301.191 174.786 301.379 174.3 301.379 173.849C301.379 173.397 301.55 172.7 301.76 172.299C301.97 171.898 303.469 167.411 305.09 162.329C306.71 157.247 308.795 150.732 309.722 147.851C311.36 142.759 311.505 141.409 310.455 141C310.176 140.89 308.772 139.928 307.335 138.861C305.898 137.793 303.547 136.058 302.11 135.006C300.673 133.953 299.198 132.846 298.831 132.546C298.464 132.245 297.054 131.223 295.696 130.275C294.339 129.328 290.782 126.744 287.794 124.533C284.805 122.323 281.231 119.73 279.852 118.77C278.472 117.811 276.685 116.527 275.881 115.917C275.076 115.306 273.383 114.052 272.119 113.129C270.854 112.208 268.233 110.284 266.295 108.856C262.078 105.75 262.929 105.796 259.149 108.467ZM357.515 131.512C355.556 132.303 354.735 132.613 353.211 133.139C351.394 133.766 350.372 134.158 349.031 134.742C348.456 134.993 347.139 135.472 346.105 135.808C344.244 136.413 341.242 137.514 339.626 138.183C339.166 138.375 336.627 139.307 333.983 140.256C321.869 144.604 323.445 142.945 319.403 155.609C317.78 160.691 315.206 168.724 313.682 173.459C312.158 178.195 310.531 183.298 310.068 184.799C309.604 186.301 309.059 187.858 308.855 188.259C308.651 188.66 308.485 189.357 308.485 189.809C308.485 190.26 308.297 190.746 308.067 190.889C307.837 191.032 307.649 191.518 307.649 191.97C307.649 192.421 307.482 193.118 307.277 193.52C307.072 193.921 306.145 196.604 305.216 199.484L303.528 204.717L305.902 207.852C307.208 209.577 309.592 212.72 311.202 214.837C312.811 216.953 315.251 220.18 316.624 222.007C317.997 223.834 319.228 225.424 319.361 225.539C319.494 225.655 320.054 226.411 320.607 227.219C321.16 228.028 321.716 228.784 321.842 228.899C321.968 229.015 322.893 230.196 323.899 231.524L325.724 233.939H354.521H383.317L384.742 231.703C395.433 214.909 403.24 191.765 405.309 170.729C405.921 164.52 406.576 165.591 398.564 159.712C394.655 156.843 390.927 154.094 390.277 153.601C389.628 153.108 388.286 152.131 387.296 151.427C383.753 148.912 380.508 146.551 375.156 142.591C372.167 140.381 368.405 137.646 366.796 136.513C365.186 135.381 362.929 133.701 361.78 132.781C359.454 130.917 359.184 130.838 357.515 131.512ZM164.458 131.792C164.013 132.206 162.707 133.187 161.558 133.971C160.408 134.755 158.809 135.901 158.005 136.515C157.2 137.13 153.626 139.753 150.063 142.346C146.499 144.937 143.053 147.461 142.403 147.955C141.754 148.449 140.404 149.428 139.404 150.131C132.293 155.128 119.665 164.531 119.327 165.08C117.919 167.369 123.798 196.678 127.452 205.589C127.642 206.051 128.01 206.949 128.27 207.584C128.532 208.22 128.908 209.165 129.106 209.684C130.33 212.876 132.252 217.078 134.724 221.969C137.015 226.499 137.027 226.523 139.381 230.474L141.445 233.939H170.162H198.881L199.75 232.994C200.963 231.677 203.726 228.097 210.046 219.658C213.034 215.667 215.671 212.193 215.905 211.935C217.062 210.665 221.123 204.971 221.123 204.619C221.123 204.018 219.849 199.82 219.412 198.98C219.203 198.578 219.033 197.962 219.033 197.609C219.033 197.256 218.865 196.64 218.658 196.239C218.452 195.838 217.68 193.525 216.943 191.099C216.206 188.674 215.434 186.361 215.228 185.96C215.021 185.558 214.853 184.887 214.853 184.469C214.853 184.05 214.697 183.528 214.508 183.308C214.318 183.089 213.923 182.059 213.631 181.019C213.339 179.98 212.93 178.801 212.722 178.4C212.514 177.998 212.345 177.382 212.345 177.029C212.345 176.676 212.173 176.06 211.963 175.659C211.753 175.258 210.51 171.527 209.199 167.369C207.889 163.211 205.693 156.35 204.321 152.121C201.433 143.22 202.806 144.546 192.699 140.896C189.135 139.608 185.893 138.376 185.494 138.157C185.094 137.938 184.481 137.759 184.13 137.759C183.779 137.759 183.165 137.585 182.766 137.373C182.367 137.161 180.911 136.575 179.532 136.072C178.152 135.569 176.648 134.999 176.188 134.806C175.728 134.612 174.599 134.213 173.68 133.919C172.76 133.625 171.82 133.268 171.59 133.128C171.36 132.986 170.325 132.614 169.291 132.301C168.256 131.99 167.231 131.577 167.013 131.386C166.367 130.822 165.325 130.987 164.458 131.792ZM226.455 217.349C224.203 220.352 222.13 223.097 221.847 223.448C221.564 223.798 220.19 225.594 218.793 227.438C217.396 229.281 214.904 232.559 213.255 234.722C209.811 239.238 209.868 238.94 211.469 243.859C214.176 252.174 214.465 253.459 213.977 254.983C213.382 256.838 210.866 259.139 209.432 259.139C208.827 259.139 208.122 259.35 207.866 259.608C206.384 261.096 203.423 256.989 201.471 250.739C200.713 248.314 199.805 246.093 199.452 245.804C198.148 244.74 150.891 245.419 150.91 246.503C150.93 247.659 163.003 260.561 168.455 265.252C180.994 276.043 194.116 284.07 209.419 290.311C209.994 290.546 210.752 290.88 211.104 291.055C211.457 291.229 212.363 291.509 213.116 291.675L214.487 291.978L214.202 290.363C214.044 289.476 213.75 288.57 213.548 288.35C213.346 288.131 213.181 287.528 213.181 287.01C213.181 286.493 212.993 285.952 212.763 285.809C212.533 285.666 212.345 285.18 212.345 284.729C212.345 284.277 212.176 283.58 211.968 283.179C211.102 281.505 210.583 278.879 210.856 277.555C211.015 276.782 211.245 275.346 211.369 274.364L211.593 272.579H214.425C220.948 272.579 220.597 272.015 227.468 293.504C228.432 296.519 228.518 296.578 233.454 297.58C253.188 301.586 279.369 301.168 296.03 296.58L298.537 295.889L300.835 288.749C302.1 284.822 303.304 281.281 303.511 280.88C303.718 280.478 303.887 279.862 303.887 279.509C303.887 279.156 304.058 278.54 304.268 278.139C304.584 277.536 309.192 263.373 312.773 251.999C313.246 250.498 314.168 247.641 314.821 245.65C316.419 240.779 316.563 241.279 311.704 234.825C302.895 223.127 297.974 216.657 297.615 216.299C297.498 216.184 296.859 215.333 296.194 214.409C295.528 213.485 294.693 212.492 294.335 212.202C293.826 211.786 286.964 211.697 262.118 211.782L230.549 211.889L226.455 217.349ZM326.868 246.539C326.699 246.886 326.338 247.925 326.064 248.849C325.791 249.773 325.415 250.907 325.227 251.369C325.04 251.831 324.281 254.194 323.54 256.619C322.798 259.045 322.024 261.358 321.818 261.759C321.611 262.16 321.443 262.857 321.443 263.309C321.443 263.76 321.255 264.246 321.025 264.389C320.795 264.532 320.607 265.018 320.607 265.47C320.607 265.921 320.435 266.618 320.225 267.02C320.015 267.421 318.404 272.285 316.644 277.829C314.884 283.373 313.27 288.343 313.055 288.874C312.172 291.057 313.278 291.562 315.995 290.215C316.347 290.04 317.106 289.704 317.681 289.466C327.525 285.408 347.069 273.817 351.121 269.634C351.236 269.514 352.364 268.571 353.629 267.536C359.663 262.597 368.374 253.909 373.379 247.837C375.215 245.609 376.041 245.684 350.644 245.801C330.272 245.895 327.136 245.992 326.868 246.539Z" fill="#060606"/>
<path id="path1" fill-rule="evenodd" clip-rule="evenodd" d="M269.819 13.0746C275.734 13.3444 279.457 13.7361 285.285 14.7042C286.664 14.9331 288.691 15.2397 289.787 15.3846C290.884 15.5295 291.883 15.813 292.006 16.0146C292.13 16.2151 293.029 16.38 294.004 16.38C294.979 16.38 295.955 16.5543 296.174 16.7674C296.392 16.9806 297.095 17.2168 297.733 17.2924C299.082 17.452 299.303 18.0505 298.244 18.6742C297.836 18.9136 296.923 19.6297 296.213 20.265C295.503 20.9002 294.682 21.42 294.388 21.42C294.094 21.42 293.854 21.6132 293.854 21.8494C293.854 22.0846 293.36 22.5046 292.755 22.7808C292.151 23.058 291.096 23.8098 290.412 24.4524C289.727 25.0939 288.926 25.62 288.629 25.62C288.333 25.62 287.988 25.8898 287.863 26.2195C287.737 26.5482 286.353 27.6853 284.788 28.7458C280.628 31.5619 277.781 33.685 277.622 34.0872C277.545 34.2814 277.245 34.44 276.955 34.44C276.665 34.44 276.087 34.818 275.671 35.28C275.255 35.742 274.697 36.12 274.431 36.12C274.164 36.12 273.405 36.687 272.745 37.38C272.085 38.073 271.326 38.64 271.059 38.64C270.793 38.64 270.235 39.018 269.819 39.48C269.403 39.942 268.81 40.32 268.5 40.32C268.191 40.32 267.937 40.4617 267.935 40.635C267.934 40.8082 267.228 41.412 266.367 41.9758C265.507 42.5397 264.301 43.4584 263.688 44.016C262.597 45.0082 260.481 44.4496 260.428 43.155C260.42 42.9817 260.179 42.8389 259.891 42.8379C259.604 42.8368 258.805 42.3171 258.115 41.6829C257.425 41.0487 256.344 40.2622 255.711 39.9336C255.079 39.606 254.562 39.1807 254.562 38.9886C254.562 38.7975 254.327 38.6389 254.039 38.6379C253.752 38.6368 252.916 38.0698 252.181 37.3779C251.447 36.6859 250.677 36.12 250.47 36.12C250.263 36.12 249.753 35.742 249.337 35.28C248.921 34.818 248.351 34.44 248.069 34.44C247.788 34.44 247.303 34.1313 246.991 33.7533C246.679 33.3753 245.762 32.614 244.954 32.0628C244.146 31.5105 242.074 30.0289 240.35 28.77C238.626 27.511 236.525 26.0116 235.683 25.4373C234.84 24.864 234.023 24.1857 233.866 23.9316C233.709 23.6764 233.176 23.29 232.681 23.0727C232.186 22.8543 230.935 22.0132 229.9 21.2016C228.865 20.3899 227.408 19.3326 226.662 18.8517C224.649 17.557 224.963 17.3544 230.213 16.5637C231.076 16.4346 232.157 16.1616 232.617 15.9579C233.077 15.7542 234.205 15.5085 235.125 15.4108C236.045 15.3132 238.396 14.9467 240.35 14.595C248.502 13.1302 259.089 12.5842 269.819 13.0746ZM143.091 79.2981C143.476 79.7265 143.792 80.3134 143.792 80.6043C143.792 81.1251 148.132 94.7562 148.818 96.39C149.012 96.852 149.397 97.986 149.674 98.91C149.951 99.834 150.342 100.968 150.542 101.43C150.742 101.892 150.944 102.837 150.989 103.53C151.035 104.223 151.216 104.893 151.392 105.018C151.569 105.144 151.783 105.616 151.87 106.068C151.956 106.52 152.163 107.206 152.331 107.592C152.498 107.979 152.686 108.546 152.748 108.852C152.81 109.159 152.998 109.726 153.166 110.112C153.334 110.499 153.522 111.066 153.584 111.372C153.646 111.679 153.834 112.246 154.002 112.632C154.17 113.019 154.35 113.627 154.402 113.985C154.454 114.343 154.628 114.767 154.787 114.928C154.947 115.088 155.078 115.65 155.078 116.175C155.078 116.7 155.266 117.247 155.496 117.39C155.726 117.533 155.914 118.1 155.914 118.65C155.914 119.2 156.102 119.767 156.332 119.91C157.391 120.567 156.476 123.06 155.176 123.06C154.863 123.06 154.131 123.627 153.551 124.32C152.97 125.013 152.253 125.58 151.957 125.58C151.661 125.58 151.163 125.889 150.851 126.267C150.538 126.645 149.545 127.448 148.643 128.052C145.005 130.487 143.972 131.23 141.563 133.14C139.491 134.783 137.587 136.079 137.225 136.092C137.043 136.098 136.346 136.665 135.675 137.352C135.006 138.038 134.312 138.6 134.134 138.6C133.956 138.6 133.194 139.167 132.439 139.86C131.684 140.553 130.826 141.12 130.532 141.12C130.238 141.12 129.998 141.277 129.998 141.469C129.998 141.661 129.481 142.086 128.848 142.414C128.216 142.742 127.135 143.529 126.445 144.163C125.755 144.797 125.039 145.317 124.854 145.318C124.67 145.319 123.917 145.886 123.182 146.578C122.448 147.27 121.612 147.837 121.324 147.838C121.037 147.839 120.802 148.029 120.802 148.26C120.802 148.491 120.6 148.68 120.355 148.68C119.668 148.68 120.517 136.241 121.255 135.471C121.466 135.252 121.638 134.082 121.638 132.871C121.638 131.661 121.795 130.572 121.987 130.453C122.178 130.333 122.366 129.435 122.405 128.454C122.444 127.473 122.662 126.483 122.892 126.252C123.122 126.021 123.31 125.208 123.31 124.446C123.31 123.684 123.498 123.06 123.728 123.06C123.958 123.06 124.146 122.304 124.146 121.38C124.146 120.456 124.304 119.7 124.496 119.7C124.689 119.7 124.872 119.005 124.905 118.155C124.936 117.307 125.108 116.504 125.287 116.37C125.466 116.238 125.678 115.563 125.758 114.87C125.839 114.177 126.206 113.043 126.575 112.35C126.942 111.657 127.203 110.941 127.152 110.758C127.102 110.575 127.289 110.008 127.568 109.498C127.847 108.988 128.132 108.237 128.198 107.831C128.543 105.761 133.599 94.018 134.27 93.7303C134.449 93.6526 134.596 93.2274 134.596 92.7853C134.596 92.3422 134.784 91.98 135.014 91.98C135.244 91.98 135.432 91.602 135.432 91.14C135.432 90.678 135.62 90.3 135.85 90.3C136.08 90.3 136.268 89.922 136.268 89.46C136.268 88.998 136.456 88.62 136.686 88.62C136.916 88.62 137.104 88.2577 137.104 87.8146C137.104 87.3726 137.245 86.9473 137.417 86.8696C137.59 86.793 138.18 85.8322 138.73 84.735C139.279 83.6377 139.89 82.74 140.088 82.74C140.286 82.74 140.448 82.404 140.448 81.9924C140.448 81.5818 140.814 80.9802 141.262 80.6557C141.709 80.3323 142.004 79.9502 141.916 79.8084C141.43 79.0188 142.443 78.5789 143.091 79.2981ZM383.222 79.464C383.498 79.7412 383.724 80.1769 383.724 80.4321C383.724 81.8538 388.627 84.7591 390.082 84.1984C391.088 83.8099 396.911 95.8051 396.286 96.979C396.028 97.4631 395.666 97.86 395.482 97.86C394.851 97.86 394.958 102.672 395.624 104.274C395.982 105.135 396.181 105.84 396.068 105.84C395.954 105.84 396.195 106.454 396.604 107.205C397.013 107.956 397.592 109.42 397.892 110.46C398.191 111.499 398.605 112.679 398.813 113.08C399.021 113.481 399.19 114.367 399.19 115.05C399.19 115.732 399.378 116.407 399.608 116.55C399.838 116.693 400.026 117.26 400.026 117.81C400.026 118.36 400.214 118.927 400.444 119.07C400.674 119.213 400.862 119.969 400.862 120.75C400.862 121.531 401.025 122.271 401.224 122.395C401.566 122.608 401.741 123.406 402.516 128.31C402.699 129.465 403.133 132.016 403.479 133.98C404.856 141.778 405.42 151.293 404.331 148.365C404.224 148.076 403.911 147.84 403.638 147.84C403.363 147.84 402.52 147.273 401.765 146.58C401.01 145.887 400.243 145.32 400.063 145.32C399.881 145.32 399.187 144.8 398.52 144.165C397.854 143.53 396.792 142.778 396.159 142.494C395.527 142.21 395.01 141.785 395.01 141.549C395.01 141.313 394.77 141.12 394.476 141.12C394.182 141.12 393.324 140.553 392.569 139.86C391.814 139.167 391.036 138.6 390.839 138.6C390.643 138.6 389.961 138.045 389.322 137.365C388.685 136.686 388.039 136.206 387.887 136.3C387.737 136.394 387.255 136.147 386.818 135.75C386.38 135.354 385.319 134.557 384.459 133.98C383.598 133.402 382.892 132.788 382.891 132.615C382.889 132.442 382.653 132.299 382.365 132.298C382.078 132.297 381.279 131.777 380.589 131.143C379.899 130.509 378.818 129.722 378.185 129.394C377.553 129.066 377.036 128.641 377.036 128.449C377.036 128.257 376.801 128.099 376.513 128.098C376.226 128.097 375.39 127.53 374.655 126.838C373.921 126.146 373.168 125.579 372.983 125.578C372.799 125.577 372.046 125.01 371.311 124.318C370.577 123.626 369.807 123.06 369.6 123.06C368.043 123.06 367.958 118.566 369.489 117.18C369.616 117.064 369.788 116.497 369.868 115.92C369.95 115.342 370.138 114.775 370.286 114.66C370.436 114.544 370.624 113.977 370.704 113.4C370.786 112.822 371.037 112.234 371.262 112.093C371.489 111.952 371.623 111.763 371.561 111.673C371.501 111.583 371.598 111.037 371.778 110.46C371.958 109.882 372.163 109.18 372.233 108.899C372.993 105.842 377.776 90.8365 378.327 89.7802C378.537 89.3791 378.708 88.6819 378.708 88.2304C378.708 87.7789 378.896 87.2928 379.126 87.15C379.356 87.0072 379.544 86.4402 379.544 85.89C379.544 85.3398 379.732 84.7728 379.962 84.63C380.192 84.4872 380.38 83.9202 380.38 83.37C380.38 82.8198 380.568 82.2528 380.798 82.11C381.028 81.9672 381.216 81.4264 381.216 80.9088C381.216 80.0289 381.904 78.96 382.47 78.96C382.608 78.96 382.947 79.1868 383.222 79.464ZM264.005 108.15C264.579 108.727 265.209 109.2 265.405 109.2C265.6 109.2 266.327 109.72 267.02 110.355C267.714 110.99 268.483 111.556 268.73 111.613C269.225 111.726 272.631 114.276 273.633 115.283C273.982 115.633 274.397 115.92 274.556 115.92C274.714 115.92 275.312 116.345 275.884 116.865C276.457 117.385 277.442 118.078 278.074 118.406C278.707 118.734 279.224 119.159 279.224 119.351C279.224 119.542 279.459 119.701 279.746 119.702C280.034 119.703 280.87 120.27 281.604 120.962C282.339 121.654 283.111 122.22 283.319 122.22C283.527 122.22 284.246 122.74 284.917 123.375C285.587 124.01 286.65 124.798 287.278 125.126C287.906 125.454 288.42 125.879 288.42 126.071C288.42 126.262 288.673 126.42 288.982 126.42C289.292 126.42 289.866 126.777 290.259 127.214C290.653 127.651 291.81 128.539 292.832 129.188C293.854 129.837 294.69 130.519 294.69 130.704C294.69 130.889 294.898 131.04 295.152 131.04C295.406 131.04 296.153 131.465 296.81 131.985C297.469 132.505 298.775 133.497 299.714 134.19C300.654 134.883 302.024 135.922 302.759 136.5C303.496 137.077 304.398 137.739 304.765 137.97C308.546 140.348 311.2 142.621 310.619 142.982C310.365 143.14 310.156 143.639 310.156 144.09C310.156 144.542 309.98 145.239 309.766 145.64C309.551 146.041 309.134 147.268 308.838 148.365C308.544 149.462 308.196 150.36 308.066 150.36C307.936 150.36 307.788 150.869 307.737 151.492C307.686 152.113 307.504 152.728 307.332 152.857C307.161 152.985 306.997 153.279 306.968 153.51C306.938 153.741 305.856 157.238 304.563 161.28C303.27 165.323 301.255 171.654 300.084 175.35C298.914 179.046 297.785 182.399 297.577 182.8C297.368 183.201 297.198 183.898 297.198 184.35C297.198 184.801 297.01 185.287 296.78 185.43C296.55 185.573 296.362 186.14 296.362 186.69C296.362 187.24 296.174 187.807 295.944 187.95C295.714 188.093 295.526 188.66 295.526 189.21C295.526 189.76 295.338 190.327 295.108 190.47C294.878 190.613 294.69 191.191 294.69 191.755C294.69 192.319 294.502 192.78 294.272 192.78C294.042 192.78 293.854 193.347 293.854 194.04C293.854 194.733 293.689 195.3 293.488 195.3C293.287 195.3 293.122 195.793 293.122 196.397C293.122 197.002 292.886 197.641 292.599 197.821C292.311 198 292.204 198.357 292.362 198.613C292.572 198.954 284.545 199.08 262.615 199.08H232.58L231.403 195.448C230.756 193.45 230.18 191.607 230.125 191.353C230.069 191.098 229.83 190.417 229.593 189.84C229.357 189.262 229.245 188.648 229.347 188.475C229.449 188.302 229.333 188.16 229.089 188.16C228.846 188.16 228.646 187.605 228.646 186.925C228.646 186.246 228.458 185.573 228.228 185.43C227.998 185.287 227.81 184.724 227.81 184.181C227.81 183.636 227.633 183.127 227.418 183.05C227.202 182.973 226.949 182.437 226.855 181.86C226.761 181.282 226.572 180.527 226.433 180.18C225.421 177.648 221.958 166.642 221.958 165.96C221.958 165.493 221.77 164.993 221.54 164.85C221.31 164.707 221.122 164.221 221.122 163.77C221.122 163.318 220.953 162.621 220.746 162.22C220.538 161.819 219.038 157.408 217.412 152.418C215.786 147.428 214.337 143.034 214.192 142.653C214.039 142.254 214.133 141.96 214.412 141.96C214.679 141.96 215.499 141.394 216.233 140.702C216.968 140.01 217.775 139.443 218.027 139.442C218.279 139.441 218.825 139.062 219.241 138.6C219.657 138.138 220.167 137.76 220.374 137.76C220.581 137.76 221.351 137.194 222.085 136.502C222.82 135.81 223.656 135.243 223.943 135.242C224.231 135.241 224.466 135.095 224.466 134.919C224.466 134.648 226.039 133.475 229.384 131.25C229.732 131.019 230.487 130.405 231.064 129.885C231.64 129.365 232.252 128.94 232.425 128.94C232.597 128.94 233.341 128.373 234.08 127.68C234.819 126.987 235.639 126.42 235.905 126.42C236.17 126.42 236.621 126.042 236.909 125.58C237.196 125.118 237.718 124.74 238.069 124.74C238.419 124.74 239.258 124.173 239.932 123.48C240.606 122.787 241.332 122.22 241.545 122.22C241.759 122.22 242.537 121.653 243.276 120.96C244.015 120.267 244.835 119.7 245.101 119.7C245.366 119.7 245.817 119.322 246.105 118.86C246.392 118.398 246.893 118.02 247.219 118.02C247.544 118.02 248.377 117.5 249.068 116.865C251.041 115.056 253.182 113.4 253.547 113.4C253.731 113.4 254.269 113.036 254.744 112.591C255.218 112.146 255.858 111.721 256.164 111.646C256.471 111.571 257.344 110.943 258.105 110.25C261.846 106.843 262.48 106.617 264.005 108.15ZM373.063 246.537C373.206 246.769 373.125 246.96 372.881 246.96C372.638 246.96 372.435 247.196 372.431 247.485C372.427 247.774 370.922 249.568 369.087 251.472C367.252 253.377 365.75 255.083 365.75 255.264C365.75 255.697 360.602 260.82 360.169 260.82C359.985 260.82 358.494 262.143 356.856 263.76C355.217 265.377 353.68 266.709 353.439 266.721C353.199 266.731 352.249 267.486 351.329 268.398C350.409 269.308 349.505 270.056 349.321 270.057C349.136 270.059 348.383 270.626 347.649 271.318C346.914 272.01 346.094 272.577 345.825 272.578C345.557 272.579 345.275 272.75 345.198 272.957C344.96 273.603 338.902 277.609 338.521 277.374C338.324 277.251 338.162 277.354 338.162 277.604C338.162 277.854 337.645 278.289 337.012 278.571C336.38 278.853 335.497 279.418 335.05 279.824C334.603 280.231 333.615 280.791 332.855 281.067C332.096 281.343 331.474 281.72 331.474 281.904C331.474 282.089 331.098 282.24 330.638 282.24C330.178 282.24 329.802 282.429 329.802 282.66C329.802 282.891 329.426 283.08 328.966 283.08C328.506 283.08 328.13 283.269 328.13 283.5C328.13 283.731 327.754 283.92 327.294 283.92C326.834 283.92 326.458 284.109 326.458 284.34C326.458 284.571 326.097 284.76 325.656 284.76C325.217 284.76 324.793 284.909 324.716 285.091C324.415 285.806 313.943 290.385 313.539 289.979C313.42 289.86 313.55 289.395 313.829 288.946C314.108 288.498 314.336 287.843 314.336 287.49C314.336 287.137 314.507 286.521 314.717 286.12C314.926 285.719 315.898 282.838 316.876 279.72C317.855 276.601 318.765 273.955 318.898 273.84C319.033 273.724 319.194 273.166 319.258 272.598C319.321 272.031 319.509 271.464 319.676 271.338C319.842 271.213 319.982 270.921 319.986 270.69C319.998 269.971 326.173 250.372 326.868 248.85C327.079 248.388 327.31 247.632 327.383 247.17C327.533 246.212 372.48 245.589 373.063 246.537ZM199.404 247.218C199.633 247.822 200.396 250.043 201.101 252.153C201.806 254.264 202.555 256.17 202.766 256.389C202.976 256.608 203.148 257.047 203.148 257.364C203.148 258.063 204.162 259.14 204.82 259.14C205.619 259.14 206.492 260.282 206.492 261.327C206.492 261.87 206.868 262.587 207.328 262.92C207.91 263.342 208.164 264.007 208.164 265.112C208.164 265.986 208.352 266.7 208.582 266.7C208.812 266.7 209 267.267 209 267.96C209 268.653 209.188 269.22 209.418 269.22C209.648 269.22 209.836 270.061 209.836 271.089C209.836 272.371 210.047 273.078 210.51 273.337C211.234 273.744 210.984 276.36 210.221 276.36C209.698 276.36 209.729 280.444 210.254 280.77C210.484 280.913 210.672 281.46 210.672 281.985C210.672 282.51 210.799 283.068 210.955 283.225C211.31 283.582 213.155 288.981 213.17 289.709C213.189 290.717 212.049 290.685 209.714 289.612C208.432 289.022 207.245 288.54 207.079 288.54C206.32 288.54 189.665 279.929 189.477 279.439C189.361 279.134 189.1 278.988 188.895 279.115C188.691 279.241 188.077 278.909 187.53 278.378C186.983 277.846 186.297 277.354 186.007 277.286C185.11 277.075 181.83 274.664 181.83 274.215C181.83 273.982 181.649 273.903 181.428 274.041C181.206 274.178 180.642 273.906 180.174 273.436C179.705 272.965 179.162 272.58 178.966 272.58C178.77 272.58 178.02 272.013 177.298 271.32C176.576 270.627 175.826 270.06 175.632 270.06C175.438 270.06 174.487 269.304 173.52 268.38C172.554 267.456 171.618 266.7 171.442 266.7C171.265 266.7 169.759 265.377 168.095 263.76C166.43 262.143 164.931 260.82 164.763 260.82C164.382 260.82 159.258 255.65 159.258 255.263C159.258 255.108 157.753 253.427 155.914 251.529C154.075 249.63 152.57 247.825 152.57 247.519C152.57 247.211 152.37 246.96 152.127 246.96C151.883 246.96 151.801 246.771 151.943 246.54C152.11 246.268 160.45 246.12 175.596 246.12H198.989L199.404 247.218Z" fill="#FCDC5C"/>
</g>
</g>
</svg>
